<svg width="47" height="47" viewBox="0 0 47 47" fill="none" xmlns="http://www.w3.org/2000/svg">
<g clip-path="url(#clip0)">
<path d="M23.5 47.0001C36.4788 47.0001 47.0001 36.4788 47.0001 23.5C47.0001 10.5213 36.4788 0 23.5 0C10.5213 0 0 10.5213 0 23.5C0 36.4788 10.5213 47.0001 23.5 47.0001Z" fill="#FFCB49"/>
<path d="M34.328 35.8475C35.739 35.8475 36.8828 34.7037 36.8828 33.2927C36.8828 31.8817 35.739 30.7379 34.328 30.7379C32.917 30.7379 31.7731 31.8817 31.7731 33.2927C31.7731 34.7037 32.917 35.8475 34.328 35.8475Z" fill="#333333"/>
<path d="M24.1479 11.1972C24.315 14.2963 26.5273 16.5087 29.6264 16.676C32.719 16.8426 34.9517 14.0455 35.1053 11.1972C35.1699 10.0009 33.3142 10.0071 33.2499 11.1972C32.9983 15.8675 26.2548 15.8675 26.0036 11.1972C25.9391 10.0071 24.0834 10.0008 24.1479 11.1972Z" fill="#333333"/>
<path d="M10.7793 11.1972C10.9463 14.2967 13.1582 16.5087 16.2578 16.676C19.3503 16.8426 21.5826 14.0455 21.7363 11.1972C21.8008 10.0009 19.9451 10.0071 19.8809 11.1972C19.6293 15.8675 12.8862 15.8675 12.635 11.1972C12.5705 10.0071 10.7147 10.0008 10.7793 11.1972Z" fill="#333333"/>
</g>
<defs>
<clipPath id="clip0">
<rect width="47" height="47" fill="white"/>
</clipPath>
</defs>
</svg>
