<svg width="60" height="60" viewBox="0 0 60 60" fill="none" xmlns="http://www.w3.org/2000/svg">
<rect width="60" height="60" rx="30" fill="white"/>
<path fill-rule="evenodd" clip-rule="evenodd" d="M30 16.25C22.375 16.25 16.25 22.375 16.25 30C16.25 37.625 22.375 43.75 30 43.75C37.625 43.75 43.75 37.625 43.75 30C43.75 22.375 37.625 16.25 30 16.25ZM30 41.25C23.75 41.25 18.75 36.25 18.75 30C18.75 23.75 23.75 18.75 30 18.75C36.25 18.75 41.25 23.75 41.25 30C41.25 36.25 36.25 41.25 30 41.25ZM34.625 34.625C35.125 34.125 35.125 33.375 34.625 32.875L31.25 29.5V22.5C31.25 21.75 30.75 21.25 30 21.25C29.25 21.25 28.75 21.75 28.75 22.5V30C28.75 30.375 28.875 30.625 29.125 30.875L32.875 34.625C33.125 34.875 33.375 35 33.75 35C34.125 35 34.375 34.875 34.625 34.625Z" fill="black"/>
<mask id="mask0" mask-type="alpha" maskUnits="userSpaceOnUse" x="16" y="16" width="28" height="28">
<path fill-rule="evenodd" clip-rule="evenodd" d="M30 16.25C22.375 16.25 16.25 22.375 16.25 30C16.25 37.625 22.375 43.75 30 43.75C37.625 43.75 43.75 37.625 43.75 30C43.75 22.375 37.625 16.25 30 16.25ZM30 41.25C23.75 41.25 18.75 36.25 18.75 30C18.75 23.75 23.75 18.75 30 18.75C36.25 18.75 41.25 23.75 41.25 30C41.25 36.25 36.25 41.25 30 41.25ZM34.625 34.625C35.125 34.125 35.125 33.375 34.625 32.875L31.25 29.5V22.5C31.25 21.75 30.75 21.25 30 21.25C29.25 21.25 28.75 21.75 28.75 22.5V30C28.75 30.375 28.875 30.625 29.125 30.875L32.875 34.625C33.125 34.875 33.375 35 33.75 35C34.125 35 34.375 34.875 34.625 34.625Z" fill="white"/>
</mask>
<g mask="url(#mask0)">
<path fill-rule="evenodd" clip-rule="evenodd" d="M15 15H45V45H15V15Z" fill="black"/>
</g>
</svg>
