<svg width="24" height="25" viewBox="0 0 24 25" fill="none" xmlns="http://www.w3.org/2000/svg">
<path d="M18.7 10.2L12.7 16.2C12.5 16.4 12.3 16.5 12 16.5C11.7 16.5 11.5 16.4 11.3 16.2L5.3 10.2C4.9 9.8 4.9 9.2 5.3 8.8C5.7 8.4 6.3 8.4 6.7 8.8L12 14.1L17.3 8.8C17.7 8.4 18.3 8.4 18.7 8.8C19.1 9.2 19.1 9.8 18.7 10.2Z" fill="black"/>
<mask id="mask0" mask-type="alpha" maskUnits="userSpaceOnUse" x="5" y="8" width="14" height="9">
<path d="M18.7 10.2L12.7 16.2C12.5 16.4 12.3 16.5 12 16.5C11.7 16.5 11.5 16.4 11.3 16.2L5.3 10.2C4.9 9.8 4.9 9.2 5.3 8.8C5.7 8.4 6.3 8.4 6.7 8.8L12 14.1L17.3 8.8C17.7 8.4 18.3 8.4 18.7 8.8C19.1 9.2 19.1 9.8 18.7 10.2Z" fill="white"/>
</mask>
<g mask="url(#mask0)">
<path fill-rule="evenodd" clip-rule="evenodd" d="M0 0.5H24V24.5H0V0.5Z" fill="black"/>
</g>
</svg>
