<svg width="60" height="60" viewBox="0 0 60 60" fill="none" xmlns="http://www.w3.org/2000/svg">
<rect width="60" height="60" rx="30" fill="white"/>
<path fill-rule="evenodd" clip-rule="evenodd" d="M17.875 21.6301C18.25 21.2551 18.75 21.1301 19.25 21.3801C19.375 21.3801 19.5 21.5051 19.625 21.6301C19.875 21.8801 20 22.1301 20 22.5051C20 22.8801 19.875 23.1301 19.625 23.3801C19.375 23.6301 19.125 23.7551 18.75 23.7551H18.5C18.375 23.6301 18.375 23.6301 18.25 23.6301C18.1875 23.6301 18.1562 23.5988 18.125 23.5676C18.0938 23.5363 18.0625 23.5051 18 23.5051L17.875 23.3801C17.8125 23.3176 17.7812 23.2551 17.75 23.1926C17.7188 23.1301 17.6875 23.0676 17.625 23.0051C17.5 22.8801 17.5 22.6301 17.5 22.5051C17.5 22.3801 17.5 22.1301 17.625 22.0051C17.625 21.8801 17.75 21.7551 17.875 21.6301ZM25 21.2551C24.25 21.2551 23.75 21.7551 23.75 22.5051C23.75 23.2551 24.25 23.7551 25 23.7551H41.25C42 23.7551 42.5 23.2551 42.5 22.5051C42.5 21.7551 42 21.2551 41.25 21.2551H25ZM25 28.7551H41.25C42 28.7551 42.5 29.2551 42.5 30.0051C42.5 30.7551 42 31.2551 41.25 31.2551H25C24.25 31.2551 23.75 30.7551 23.75 30.0051C23.75 29.2551 24.25 28.7551 25 28.7551ZM41.25 36.2551H25C24.25 36.2551 23.75 36.7551 23.75 37.5051C23.75 38.2551 24.25 38.7551 25 38.7551H41.25C42 38.7551 42.5 38.2551 42.5 37.5051C42.5 36.7551 42 36.2551 41.25 36.2551ZM19.875 29.5051C19.875 29.4426 19.8438 29.4113 19.8125 29.3801C19.7812 29.3488 19.75 29.3176 19.75 29.2551C19.75 29.1301 19.625 29.1301 19.625 29.1301C19.25 28.7551 18.75 28.6301 18.25 28.8801C18.1875 28.9426 18.125 28.9738 18.0625 29.0051C18 29.0363 17.9375 29.0676 17.875 29.1301L17.75 29.2551C17.75 29.3176 17.7188 29.3488 17.6875 29.3801C17.6562 29.4113 17.625 29.4426 17.625 29.5051C17.625 29.5582 17.625 29.5887 17.6154 29.6159C17.6024 29.6526 17.5719 29.6832 17.5 29.7551V30.0051C17.5 30.3801 17.625 30.6301 17.875 30.8801C18.125 31.1301 18.375 31.2551 18.75 31.2551C19.125 31.2551 19.375 31.1301 19.625 30.8801C19.875 30.6301 20 30.3801 20 30.0051V29.7551C20 29.6926 19.9688 29.6613 19.9375 29.6301C19.9062 29.5988 19.875 29.5676 19.875 29.5051ZM17.625 37.0051C17.625 36.8801 17.75 36.7551 17.875 36.6301C18.375 36.1301 19.125 36.1301 19.625 36.6301C19.875 36.8801 20 37.1301 20 37.5051C20 37.8801 19.875 38.1301 19.625 38.3801C19.375 38.6301 19.125 38.7551 18.75 38.7551C18.375 38.7551 18.125 38.6301 17.875 38.3801C17.625 38.1301 17.5 37.8801 17.5 37.5051C17.5 37.3801 17.5 37.1301 17.625 37.0051Z" fill="black"/>
<mask id="mask0" mask-type="alpha" maskUnits="userSpaceOnUse" x="17" y="21" width="26" height="18">
<path fill-rule="evenodd" clip-rule="evenodd" d="M17.875 21.6301C18.25 21.2551 18.75 21.1301 19.25 21.3801C19.375 21.3801 19.5 21.5051 19.625 21.6301C19.875 21.8801 20 22.1301 20 22.5051C20 22.8801 19.875 23.1301 19.625 23.3801C19.375 23.6301 19.125 23.7551 18.75 23.7551H18.5C18.375 23.6301 18.375 23.6301 18.25 23.6301C18.1875 23.6301 18.1562 23.5988 18.125 23.5676C18.0938 23.5363 18.0625 23.5051 18 23.5051L17.875 23.3801C17.8125 23.3176 17.7812 23.2551 17.75 23.1926C17.7188 23.1301 17.6875 23.0676 17.625 23.0051C17.5 22.8801 17.5 22.6301 17.5 22.5051C17.5 22.3801 17.5 22.1301 17.625 22.0051C17.625 21.8801 17.75 21.7551 17.875 21.6301ZM25 21.2551C24.25 21.2551 23.75 21.7551 23.75 22.5051C23.75 23.2551 24.25 23.7551 25 23.7551H41.25C42 23.7551 42.5 23.2551 42.5 22.5051C42.5 21.7551 42 21.2551 41.25 21.2551H25ZM25 28.7551H41.25C42 28.7551 42.5 29.2551 42.5 30.0051C42.5 30.7551 42 31.2551 41.25 31.2551H25C24.25 31.2551 23.75 30.7551 23.75 30.0051C23.75 29.2551 24.25 28.7551 25 28.7551ZM41.25 36.2551H25C24.25 36.2551 23.75 36.7551 23.75 37.5051C23.75 38.2551 24.25 38.7551 25 38.7551H41.25C42 38.7551 42.5 38.2551 42.5 37.5051C42.5 36.7551 42 36.2551 41.25 36.2551ZM19.875 29.5051C19.875 29.4426 19.8438 29.4113 19.8125 29.3801C19.7812 29.3488 19.75 29.3176 19.75 29.2551C19.75 29.1301 19.625 29.1301 19.625 29.1301C19.25 28.7551 18.75 28.6301 18.25 28.8801C18.1875 28.9426 18.125 28.9738 18.0625 29.0051C18 29.0363 17.9375 29.0676 17.875 29.1301L17.75 29.2551C17.75 29.3176 17.7188 29.3488 17.6875 29.3801C17.6562 29.4113 17.625 29.4426 17.625 29.5051C17.625 29.5582 17.625 29.5887 17.6154 29.6159C17.6024 29.6526 17.5719 29.6832 17.5 29.7551V30.0051C17.5 30.3801 17.625 30.6301 17.875 30.8801C18.125 31.1301 18.375 31.2551 18.75 31.2551C19.125 31.2551 19.375 31.1301 19.625 30.8801C19.875 30.6301 20 30.3801 20 30.0051V29.7551C20 29.6926 19.9688 29.6613 19.9375 29.6301C19.9062 29.5988 19.875 29.5676 19.875 29.5051ZM17.625 37.0051C17.625 36.8801 17.75 36.7551 17.875 36.6301C18.375 36.1301 19.125 36.1301 19.625 36.6301C19.875 36.8801 20 37.1301 20 37.5051C20 37.8801 19.875 38.1301 19.625 38.3801C19.375 38.6301 19.125 38.7551 18.75 38.7551C18.375 38.7551 18.125 38.6301 17.875 38.3801C17.625 38.1301 17.5 37.8801 17.5 37.5051C17.5 37.3801 17.5 37.1301 17.625 37.0051Z" fill="white"/>
</mask>
<g mask="url(#mask0)">
<path fill-rule="evenodd" clip-rule="evenodd" d="M15 15H45V45H15V15Z" fill="#333333"/>
</g>
</svg>
