<svg width="60" height="60" viewBox="0 0 60 60" fill="none" xmlns="http://www.w3.org/2000/svg">
<rect width="60" height="60" rx="30" fill="white"/>
<mask id="path-2-inside-1" fill="white">
<path fill-rule="evenodd" clip-rule="evenodd" d="M30.3134 46.1371C32.5322 46.1371 42.6269 31.1082 42.6269 24.6655C42.6269 18.2228 37.114 13 30.3134 13C23.5129 13 18 18.2228 18 24.6655C18 31.1082 28.0947 46.1371 30.3134 46.1371ZM30.3296 28.0318C31.9864 28.0318 33.3296 26.6887 33.3296 25.0318C33.3296 23.375 31.9864 22.0318 30.3296 22.0318C28.6727 22.0318 27.3296 23.375 27.3296 25.0318C27.3296 26.6887 28.6727 28.0318 30.3296 28.0318Z"/>
</mask>
<path d="M39.6269 24.6655C39.6269 25.6487 39.1988 27.3353 38.2527 29.5678C37.3444 31.7113 36.0894 34.0588 34.7456 36.2477C33.4 38.4395 32.0129 40.3951 30.8691 41.7673C30.2901 42.4619 29.8304 42.9379 29.514 43.2123C29.3535 43.3516 29.2956 43.381 29.3314 43.3606C29.3532 43.3482 29.4379 43.3012 29.5778 43.2536C29.713 43.2076 29.9695 43.1371 30.3134 43.1371V49.1371C31.2208 49.1371 31.934 48.7835 32.3033 48.5729C32.7308 48.3291 33.1173 48.0294 33.4451 47.7452C34.1054 47.1725 34.7985 46.4241 35.4779 45.609C36.8509 43.9619 38.4034 41.7576 39.8589 39.3868C41.3161 37.0132 42.7234 34.3954 43.7771 31.909C44.7931 29.5116 45.6269 26.9036 45.6269 24.6655H39.6269ZM30.3134 16C35.612 16 39.6269 20.0304 39.6269 24.6655H45.6269C45.6269 16.4152 38.616 10 30.3134 10V16ZM21 24.6655C21 20.0304 25.0149 16 30.3134 16V10C22.0109 10 15 16.4152 15 24.6655H21ZM30.3134 43.1371C30.6574 43.1371 30.9139 43.2076 31.0491 43.2536C31.189 43.3012 31.2737 43.3482 31.2955 43.3606C31.3313 43.381 31.2734 43.3516 31.1128 43.2123C30.7965 42.9379 30.3368 42.4619 29.7578 41.7673C28.614 40.3951 27.2269 38.4395 25.8813 36.2477C24.5375 34.0588 23.2825 31.7113 22.3742 29.5678C21.4281 27.3353 21 25.6487 21 24.6655H15C15 26.9036 15.8338 29.5116 16.8498 31.909C17.9035 34.3954 19.3108 37.0132 20.768 39.3868C22.2235 41.7576 23.776 43.9619 25.149 45.609C25.8284 46.4241 26.5214 47.1725 27.1818 47.7452C27.5096 48.0294 27.8961 48.3291 28.3236 48.5729C28.6929 48.7835 29.4061 49.1371 30.3134 49.1371V43.1371ZM30.3296 25.0318V31.0318C33.6433 31.0318 36.3296 28.3455 36.3296 25.0318H30.3296ZM30.3296 25.0318H36.3296C36.3296 21.7181 33.6433 19.0318 30.3296 19.0318V25.0318ZM30.3296 25.0318V19.0318C27.0159 19.0318 24.3296 21.7181 24.3296 25.0318H30.3296ZM30.3296 25.0318H24.3296C24.3296 28.3455 27.0159 31.0318 30.3296 31.0318V25.0318Z" fill="black" mask="url(#path-2-inside-1)"/>
</svg>
