<svg width="60" height="60" viewBox="0 0 60 60" fill="none" xmlns="http://www.w3.org/2000/svg">
<rect width="60" height="60" rx="30" fill="white"/>
<path d="M20.28 17.584H39.582C41.6232 17.584 43.278 19.2388 43.278 21.28V38.8524V40.1867C43.278 40.6433 42.7376 40.8846 42.3976 40.5799L40.0559 38.4815C39.1843 37.7003 38.055 37.2684 36.8846 37.2684H20.28C18.2388 37.2684 16.584 35.6136 16.584 33.5724V21.28C16.584 19.2388 18.2388 17.584 20.28 17.584Z" stroke="black" stroke-width="3.168"/>
<path fill-rule="evenodd" clip-rule="evenodd" d="M24.0427 28.6177C24.8557 28.6177 25.5148 27.9587 25.5148 27.1457C25.5148 26.3327 24.8557 25.6736 24.0427 25.6736C23.2297 25.6736 22.5706 26.3327 22.5706 27.1457C22.5706 27.9587 23.2297 28.6177 24.0427 28.6177Z" fill="black"/>
<path fill-rule="evenodd" clip-rule="evenodd" d="M29.5104 28.6177C30.3234 28.6177 30.9825 27.9587 30.9825 27.1457C30.9825 26.3327 30.3234 25.6736 29.5104 25.6736C28.6974 25.6736 28.0383 26.3327 28.0383 27.1457C28.0383 27.9587 28.6974 28.6177 29.5104 28.6177Z" fill="black"/>
<path fill-rule="evenodd" clip-rule="evenodd" d="M34.9781 28.6177C35.7911 28.6177 36.4502 27.9587 36.4502 27.1457C36.4502 26.3327 35.7911 25.6736 34.9781 25.6736C34.1651 25.6736 33.506 26.3327 33.506 27.1457C33.506 27.9587 34.1651 28.6177 34.9781 28.6177Z" fill="black"/>
</svg>
