<svg width="501" height="210" viewBox="0 0 501 210" fill="none" xmlns="http://www.w3.org/2000/svg">
<ellipse cx="25.2001" cy="151.2" rx="23.6727" ry="14.5091" fill="#42F4EB"/>
<path d="M8.80908 115.461H41.5797L38.4125 152.833C38.1445 155.996 35.4992 158.427 32.3253 158.427H18.0635C14.8895 158.427 12.2443 155.996 11.9763 152.834L8.80908 115.461Z" fill="#7A4CD5"/>
<ellipse cx="25.1949" cy="115.643" rx="16.3853" ry="4.91559" fill="#8A59E9"/>
<path d="M12.9436 92.3091H9.11783V81.7251H7.46838V79.3196L9.8051 78.0825H12.9436V92.3091ZM14.5774 79.0447C16.0588 78.2505 17.5326 77.8535 18.9988 77.8535C20.4803 77.8535 21.6028 78.2276 22.3664 78.976C23.1301 79.7244 23.5119 80.7858 23.5119 82.1604C23.5119 83.5196 23.2675 84.6345 22.7788 85.5051C22.3054 86.3756 21.4272 87.5516 20.1443 89.0331H23.5577V92.3091H15.1501L14.9668 89.9724C16.4177 88.4298 17.4486 87.2615 18.0595 86.4673C18.6704 85.6731 19.0828 85.0164 19.2966 84.4971C19.5104 83.9778 19.6174 83.4967 19.6174 83.0538C19.6174 82.5956 19.5028 82.2444 19.2737 82C19.0599 81.7556 18.7774 81.6335 18.4261 81.6335C18.0748 81.6335 17.7388 81.6793 17.4181 81.7709C16.9752 81.8778 16.2726 82.1527 15.3104 82.5956L14.5774 79.0447ZM24.3615 86.788C24.3615 84.772 24.7433 83.3135 25.507 82.4124C26.2859 81.5113 27.4924 81.0607 29.1266 81.0607C30.776 81.0607 31.975 81.5036 32.7233 82.3895C33.4717 83.2753 33.8459 84.7338 33.8459 86.7651C33.8459 88.7811 33.4793 90.2473 32.7462 91.1636C32.0131 92.08 30.8142 92.5382 29.1495 92.5382C27.4848 92.5382 26.2706 92.08 25.507 91.1636C24.7433 90.2473 24.3615 88.7887 24.3615 86.788ZM29.8597 84.6116C29.768 84.3062 29.5237 84.1535 29.1266 84.1535C28.7295 84.1535 28.4775 84.3062 28.3706 84.6116C28.2637 84.9171 28.2102 85.5585 28.2102 86.536V87.0858C28.2102 88.1702 28.2637 88.8727 28.3706 89.1935C28.4775 89.5142 28.7219 89.6745 29.1037 89.6745C29.5008 89.6745 29.7528 89.5142 29.8597 89.1935C29.9666 88.8727 30.02 88.216 30.02 87.2233V86.5589C30.02 85.5662 29.9666 84.9171 29.8597 84.6116ZM43.0784 92.3091H34.854L34.7624 90.1098L38.153 84.5429H34.625V81.3356H42.8493L42.9868 83.3745L39.7108 89.1476H43.0784V92.3091Z" fill="black"/>
<path d="M3.25809 195.764C2.7042 195.4 2.2282 194.873 1.83009 194.18C1.44929 193.488 1.25889 192.588 1.25889 191.48C1.25889 190.372 1.5618 189.386 2.16762 188.52C2.79075 187.637 3.66486 187.057 4.78995 186.781V184.34H8.21715V186.677C9.0826 186.746 10.0519 186.876 11.1251 187.066L10.6058 191.22C8.8922 190.822 7.71518 190.623 7.07475 190.623C6.26122 190.623 5.85446 190.952 5.85446 191.61C5.85446 191.869 6.04486 192.12 6.42566 192.363C6.82377 192.605 7.29977 192.865 7.85366 193.142C8.40755 193.401 8.96144 193.721 9.51533 194.102C10.0692 194.466 10.5366 194.994 10.9174 195.686C11.3155 196.378 11.5145 197.278 11.5145 198.386C11.5145 199.477 11.2289 200.455 10.6577 201.32C10.1038 202.168 9.29031 202.731 8.21715 203.008V205.033H4.78995V203.164C3.68217 203.042 2.65227 202.817 1.70027 202.489L1.98587 198.62C3.83795 199.157 5.12747 199.425 5.85446 199.425C6.58144 199.425 6.94493 199.105 6.94493 198.464C6.94493 198.135 6.74587 197.832 6.34777 197.555C5.96697 197.278 5.49962 197.002 4.94573 196.725C4.39184 196.448 3.82929 196.127 3.25809 195.764ZM19.0176 202.982H14.6817V190.987H12.8123V188.26L15.4606 186.858H19.0176V202.982ZM22.6087 201.216C22.6087 200.524 22.7905 200.013 23.1539 199.684C23.5174 199.338 24.0973 199.165 24.8935 199.165C25.6897 199.165 26.2696 199.338 26.6331 199.684C26.9966 200.013 27.1783 200.541 27.1783 201.268C27.1783 202.601 26.4167 203.267 24.8935 203.267C23.3703 203.267 22.6087 202.584 22.6087 201.216ZM38.8333 189.273L34.3936 202.982H29.5124L33.8483 190.987H28.6037V186.858H38.8333V189.273ZM49.5283 197.503C49.5283 201.329 47.832 203.241 44.4395 203.241C42.8643 203.241 41.4017 202.973 40.0516 202.437L40.3632 198.412C42.146 198.949 43.349 199.217 43.9721 199.217C44.8549 199.217 45.2963 198.741 45.2963 197.789C45.2963 196.82 44.9587 196.335 44.2837 196.335C43.9548 196.335 43.7038 196.508 43.5307 196.854L40.0776 196.335V186.858H48.8014V190.727H44.1019V193.038C44.552 192.795 45.1232 192.674 45.8155 192.674C48.2907 192.674 49.5283 194.284 49.5283 197.503Z" fill="black"/>
<ellipse cx="104.619" cy="145.165" rx="33.6" ry="20.6182" fill="#42F4EB"/>
<path d="M81.355 94.5367H127.868L123.174 149.927C122.906 153.09 120.261 155.521 117.087 155.521H92.1364C88.9624 155.521 86.3171 153.09 86.0491 149.927L81.355 94.5367Z" fill="#7A4CD5"/>
<ellipse cx="104.612" cy="94.7952" rx="23.2566" ry="6.97697" fill="#8A59E9"/>
<path d="M92.2182 69.4H88.3924V58.816H86.7429V56.4105L89.0796 55.1735H92.2182V69.4ZM100.381 64.9098C100.381 64.36 100.282 63.9629 100.083 63.7185C99.8999 63.4742 99.6021 63.352 99.1897 63.352C98.7926 63.352 98.4108 63.4055 98.0442 63.5124C98.0137 63.7567 97.9984 63.9553 97.9984 64.108C97.9984 65.6658 98.4337 66.4447 99.3042 66.4447C99.6861 66.4447 99.961 66.3225 100.129 66.0782C100.297 65.8338 100.381 65.4444 100.381 64.9098ZM100.083 60.3509C101.305 60.3509 102.252 60.7022 102.924 61.4047C103.596 62.092 103.932 63.1458 103.932 64.5662C103.932 67.9415 102.374 69.6291 99.2584 69.6291C95.8832 69.6291 94.1955 67.5138 94.1955 63.2833C94.1955 60.412 94.8828 58.3044 96.2573 56.9604C97.6472 55.6164 99.8312 54.9444 102.809 54.9444L102.58 58.2204C101.282 58.2204 100.282 58.3884 99.5792 58.7244C98.8919 59.0604 98.4184 59.656 98.1588 60.5113L98.2046 60.6258C98.7544 60.4425 99.3806 60.3509 100.083 60.3509ZM104.688 63.8789C104.688 61.8629 105.069 60.4044 105.833 59.5033C106.612 58.6022 107.818 58.1516 109.453 58.1516C111.102 58.1516 112.301 58.5945 113.049 59.4804C113.798 60.3662 114.172 61.8247 114.172 63.856C114.172 65.872 113.805 67.3382 113.072 68.2545C112.339 69.1709 111.14 69.6291 109.476 69.6291C107.811 69.6291 106.597 69.1709 105.833 68.2545C105.069 67.3382 104.688 65.8796 104.688 63.8789ZM110.186 61.7025C110.094 61.3971 109.85 61.2444 109.453 61.2444C109.056 61.2444 108.804 61.3971 108.697 61.7025C108.59 62.008 108.536 62.6495 108.536 63.6269V64.1767C108.536 65.2611 108.59 65.9636 108.697 66.2844C108.804 66.6051 109.048 66.7655 109.43 66.7655C109.827 66.7655 110.079 66.6051 110.186 66.2844C110.293 65.9636 110.346 65.3069 110.346 64.3142V63.6498C110.346 62.6571 110.293 62.008 110.186 61.7025ZM123.404 69.4H115.18L115.088 67.2007L118.479 61.6338H114.951V58.4265H123.175L123.313 60.4655L120.037 66.2385H123.404V69.4Z" fill="black"/>
<path d="M80.0146 195.764C79.4608 195.4 78.9848 194.873 78.5866 194.18C78.2058 193.488 78.0154 192.588 78.0154 191.48C78.0154 190.372 78.3184 189.386 78.9242 188.52C79.5473 187.637 80.4214 187.057 81.5465 186.781V184.34H84.9737V186.677C85.8392 186.746 86.8085 186.876 87.8816 187.066L87.3624 191.22C85.6488 190.822 84.4717 190.623 83.8313 190.623C83.0178 190.623 82.611 190.952 82.611 191.61C82.611 191.869 82.8014 192.12 83.1822 192.363C83.5803 192.605 84.0563 192.865 84.6102 193.142C85.1641 193.401 85.718 193.721 86.2719 194.102C86.8258 194.466 87.2931 194.994 87.6739 195.686C88.072 196.378 88.2711 197.278 88.2711 198.386C88.2711 199.477 87.9855 200.455 87.4143 201.32C86.8604 202.168 86.0469 202.731 84.9737 203.008V205.033H81.5465V203.164C80.4387 203.042 79.4088 202.817 78.4568 202.489L78.7424 198.62C80.5945 199.157 81.884 199.425 82.611 199.425C83.338 199.425 83.7015 199.105 83.7015 198.464C83.7015 198.135 83.5024 197.832 83.1043 197.555C82.7235 197.278 82.2562 197.002 81.7023 196.725C81.1484 196.448 80.5858 196.127 80.0146 195.764ZM89.3092 187.949C90.9882 187.049 92.6585 186.599 94.3202 186.599C95.9992 186.599 97.2714 187.023 98.1369 187.871C99.0023 188.719 99.435 189.922 99.435 191.48C99.435 193.02 99.1581 194.284 98.6042 195.271C98.0676 196.257 97.0723 197.59 95.6184 199.269H99.487V202.982H89.9583L89.7506 200.334C91.395 198.585 92.5633 197.261 93.2557 196.361C93.9481 195.461 94.4154 194.717 94.6577 194.128C94.9001 193.54 95.0212 192.994 95.0212 192.493C95.0212 191.973 94.8914 191.575 94.6318 191.298C94.3894 191.021 94.0692 190.883 93.6711 190.883C93.273 190.883 92.8922 190.935 92.5287 191.039C92.0267 191.16 91.2305 191.471 90.1401 191.973L89.3092 187.949ZM101.774 201.216C101.774 200.524 101.956 200.013 102.319 199.684C102.683 199.338 103.263 199.165 104.059 199.165C104.855 199.165 105.435 199.338 105.798 199.684C106.162 200.013 106.344 200.541 106.344 201.268C106.344 202.601 105.582 203.267 104.059 203.267C102.536 203.267 101.774 202.584 101.774 201.216ZM115.143 195.037V194.647C115.143 192.951 115.091 191.965 114.987 191.688C114.9 191.393 114.805 191.142 114.701 190.935C114.511 190.589 114.173 190.415 113.689 190.415C113.204 190.415 112.875 190.589 112.702 190.935C112.494 191.385 112.382 191.843 112.365 192.311C112.33 193.176 112.313 193.955 112.313 194.647V195.037C112.313 196.924 112.356 198.023 112.442 198.334C112.546 198.629 112.65 198.88 112.754 199.087C112.927 199.468 113.299 199.658 113.87 199.658C114.442 199.658 114.796 199.338 114.935 198.698C115.073 198.04 115.143 196.82 115.143 195.037ZM119.063 191.324C119.219 192.276 119.297 193.47 119.297 194.907C119.297 196.344 119.219 197.538 119.063 198.49C118.925 199.442 118.656 200.299 118.258 201.061C117.479 202.514 115.956 203.241 113.689 203.241C111.456 203.241 109.95 202.514 109.171 201.061C108.773 200.299 108.496 199.442 108.34 198.49C108.184 197.521 108.106 196.326 108.106 194.907C108.106 191.999 108.487 189.887 109.249 188.572C110.028 187.257 111.508 186.599 113.689 186.599C115.973 186.599 117.497 187.317 118.258 188.754C118.656 189.515 118.925 190.372 119.063 191.324ZM127.415 195.037V194.647C127.415 192.951 127.363 191.965 127.259 191.688C127.172 191.393 127.077 191.142 126.973 190.935C126.783 190.589 126.445 190.415 125.961 190.415C125.476 190.415 125.147 190.589 124.974 190.935C124.766 191.385 124.654 191.843 124.636 192.311C124.602 193.176 124.584 193.955 124.584 194.647V195.037C124.584 196.924 124.628 198.023 124.714 198.334C124.818 198.629 124.922 198.88 125.026 199.087C125.199 199.468 125.571 199.658 126.142 199.658C126.713 199.658 127.068 199.338 127.207 198.698C127.345 198.04 127.415 196.82 127.415 195.037ZM131.335 191.324C131.491 192.276 131.569 193.47 131.569 194.907C131.569 196.344 131.491 197.538 131.335 198.49C131.197 199.442 130.928 200.299 130.53 201.061C129.751 202.514 128.228 203.241 125.961 203.241C123.728 203.241 122.222 202.514 121.443 201.061C121.045 200.299 120.768 199.442 120.612 198.49C120.456 197.521 120.378 196.326 120.378 194.907C120.378 191.999 120.759 189.887 121.521 188.572C122.3 187.257 123.78 186.599 125.961 186.599C128.245 186.599 129.769 187.317 130.53 188.754C130.928 189.515 131.197 190.372 131.335 191.324Z" fill="black"/>
<ellipse cx="201.218" cy="140.509" rx="40.8545" ry="25.2" fill="#42F4EB"/>
<path d="M172.926 79.1845H229.462L223.654 147.716C223.386 150.879 220.741 153.309 217.567 153.309H184.821C181.647 153.309 179.002 150.879 178.734 147.716L172.926 79.1845Z" fill="#7A4CD5"/>
<ellipse cx="201.195" cy="79.4986" rx="28.2679" ry="8.48038" fill="#8A59E9"/>
<path d="M181.289 39.3356C182.77 38.5415 184.244 38.1444 185.71 38.1444C187.192 38.1444 188.314 38.5185 189.078 39.2669C189.842 40.0153 190.224 41.0767 190.224 42.4513C190.224 43.8105 189.979 44.9255 189.49 45.796C189.017 46.6665 188.139 47.8425 186.856 49.324H190.269V52.6H181.862L181.678 50.2633C183.129 48.7207 184.16 47.5524 184.771 46.7582C185.382 45.964 185.794 45.3073 186.008 44.788C186.222 44.2687 186.329 43.7876 186.329 43.3447C186.329 42.8865 186.214 42.5353 185.985 42.2909C185.772 42.0465 185.489 41.9244 185.138 41.9244C184.786 41.9244 184.45 41.9702 184.13 42.0618C183.687 42.1687 182.984 42.4436 182.022 42.8865L181.289 39.3356ZM201.818 49.828H200.214V52.6H196.388V49.828H191.188L190.798 47.1018L195.495 38.3735H200.214V46.7353H201.978L201.818 49.828ZM196.503 46.7353V43.2302H196.365L194.487 46.7353H196.503ZM202.349 47.0789C202.349 45.0629 202.731 43.6044 203.494 42.7033C204.273 41.8022 205.48 41.3516 207.114 41.3516C208.763 41.3516 209.962 41.7945 210.711 42.6804C211.459 43.5662 211.833 45.0247 211.833 47.056C211.833 49.072 211.467 50.5382 210.733 51.4545C210 52.3709 208.801 52.8291 207.137 52.8291C205.472 52.8291 204.258 52.3709 203.494 51.4545C202.731 50.5382 202.349 49.0796 202.349 47.0789ZM207.847 44.9025C207.755 44.5971 207.511 44.4444 207.114 44.4444C206.717 44.4444 206.465 44.5971 206.358 44.9025C206.251 45.208 206.197 45.8495 206.197 46.8269V47.3767C206.197 48.4611 206.251 49.1636 206.358 49.4844C206.465 49.8051 206.709 49.9655 207.091 49.9655C207.488 49.9655 207.74 49.8051 207.847 49.4844C207.954 49.1636 208.007 48.5069 208.007 47.5142V46.8498C208.007 45.8571 207.954 45.208 207.847 44.9025ZM221.066 52.6H212.841L212.75 50.4007L216.14 44.8338H212.612V41.6265H220.837L220.974 43.6655L217.698 49.4385H221.066V52.6Z" fill="black"/>
<path d="M177.779 195.764C177.225 195.4 176.749 194.873 176.351 194.18C175.97 193.488 175.78 192.588 175.78 191.48C175.78 190.372 176.083 189.386 176.689 188.52C177.312 187.637 178.186 187.057 179.311 186.781V184.34H182.738V186.677C183.604 186.746 184.573 186.876 185.646 187.066L185.127 191.22C183.413 190.822 182.236 190.623 181.596 190.623C180.782 190.623 180.376 190.952 180.376 191.61C180.376 191.869 180.566 192.12 180.947 192.363C181.345 192.605 181.821 192.865 182.375 193.142C182.929 193.401 183.482 193.721 184.036 194.102C184.59 194.466 185.058 194.994 185.438 195.686C185.837 196.378 186.036 197.278 186.036 198.386C186.036 199.477 185.75 200.455 185.179 201.32C184.625 202.168 183.811 202.731 182.738 203.008V205.033H179.311V203.164C178.203 203.042 177.173 202.817 176.221 202.489L176.507 198.62C178.359 199.157 179.649 199.425 180.376 199.425C181.102 199.425 181.466 199.105 181.466 198.464C181.466 198.135 181.267 197.832 180.869 197.555C180.488 197.278 180.021 197.002 179.467 196.725C178.913 196.448 178.35 196.127 177.779 195.764ZM187.074 187.949C188.753 187.049 190.423 186.599 192.085 186.599C193.764 186.599 195.036 187.023 195.901 187.871C196.767 188.719 197.2 189.922 197.2 191.48C197.2 193.02 196.923 194.284 196.369 195.271C195.832 196.257 194.837 197.59 193.383 199.269H197.251V202.982H187.723L187.515 200.334C189.159 198.585 190.328 197.261 191.02 196.361C191.713 195.461 192.18 194.717 192.422 194.128C192.665 193.54 192.786 192.994 192.786 192.493C192.786 191.973 192.656 191.575 192.396 191.298C192.154 191.021 191.834 190.883 191.436 190.883C191.038 190.883 190.657 190.935 190.293 191.039C189.791 191.16 188.995 191.471 187.905 191.973L187.074 187.949ZM199.538 201.216C199.538 200.524 199.72 200.013 200.084 199.684C200.447 199.338 201.027 199.165 201.823 199.165C202.62 199.165 203.199 199.338 203.563 199.684C203.926 200.013 204.108 200.541 204.108 201.268C204.108 202.601 203.346 203.267 201.823 203.267C200.3 203.267 199.538 202.584 199.538 201.216ZM205.482 187.949C207.161 187.049 208.831 186.599 210.493 186.599C212.171 186.599 213.444 187.023 214.309 187.871C215.175 188.719 215.607 189.922 215.607 191.48C215.607 193.02 215.33 194.284 214.777 195.271C214.24 196.257 213.245 197.59 211.791 199.269H215.659V202.982H206.131L205.923 200.334C207.567 198.585 208.736 197.261 209.428 196.361C210.12 195.461 210.588 194.717 210.83 194.128C211.072 193.54 211.194 192.994 211.194 192.493C211.194 191.973 211.064 191.575 210.804 191.298C210.562 191.021 210.242 190.883 209.843 190.883C209.445 190.883 209.065 190.935 208.701 191.039C208.199 191.16 207.403 191.471 206.312 191.973L205.482 187.949ZM226.281 197.503C226.281 201.329 224.584 203.241 221.192 203.241C219.617 203.241 218.154 202.973 216.804 202.437L217.115 198.412C218.898 198.949 220.101 199.217 220.724 199.217C221.607 199.217 222.049 198.741 222.049 197.789C222.049 196.82 221.711 196.335 221.036 196.335C220.707 196.335 220.456 196.508 220.283 196.854L216.83 196.335V186.858H225.554V190.727H220.854V193.038C221.304 192.795 221.875 192.674 222.568 192.674C225.043 192.674 226.281 194.284 226.281 197.503Z" fill="black"/>
<ellipse cx="313.854" cy="140.891" rx="49.6364" ry="30.1636" fill="#42F4EB"/>
<path d="M279.491 65.6727H348.218L341.056 150.189C340.788 153.351 338.142 155.782 334.968 155.782H292.74C289.566 155.782 286.921 153.351 286.653 150.189L279.491 65.6727Z" fill="#7A4CD5"/>
<ellipse cx="313.854" cy="66.0546" rx="34.3636" ry="10.3091" fill="#8A59E9"/>
<path d="M299.833 22.8716C302.705 22.8716 304.14 24.1164 304.14 26.6058C304.14 27.3542 304.003 27.9727 303.728 28.4615C303.453 28.9502 303.002 29.3931 302.376 29.7902V29.8818C303.079 30.2025 303.583 30.6302 303.888 31.1647C304.194 31.684 304.346 32.3636 304.346 33.2036C304.346 34.5935 303.949 35.6702 303.155 36.4338C302.361 37.1822 301.208 37.5564 299.696 37.5564C298.948 37.5564 298.306 37.4876 297.772 37.3502C297.252 37.228 296.58 36.9913 295.756 36.64L296.557 33.4327C297.825 33.8909 298.703 34.12 299.192 34.12C299.91 34.12 300.269 33.7229 300.269 32.9287C300.269 32.0735 299.788 31.6458 298.825 31.6458H297.405V28.6447H298.848C299.276 28.6447 299.574 28.5531 299.742 28.3698C299.925 28.1713 300.017 27.8811 300.017 27.4993C300.017 26.7662 299.658 26.3996 298.94 26.3996C298.436 26.3996 297.542 26.6593 296.26 27.1785L295.366 24.0858C296.206 23.6276 296.954 23.3145 297.611 23.1465C298.268 22.9633 299.009 22.8716 299.833 22.8716ZM304.844 24.0629C306.326 23.2687 307.8 22.8716 309.266 22.8716C310.747 22.8716 311.87 23.2458 312.633 23.9942C313.397 24.7425 313.779 25.804 313.779 27.1785C313.779 28.5378 313.535 29.6527 313.046 30.5233C312.572 31.3938 311.694 32.5698 310.411 34.0513H313.825V37.3273H305.417L305.234 34.9905C306.685 33.448 307.716 32.2796 308.327 31.4855C308.937 30.6913 309.35 30.0345 309.564 29.5153C309.777 28.996 309.884 28.5149 309.884 28.072C309.884 27.6138 309.77 27.2625 309.541 27.0182C309.327 26.7738 309.044 26.6516 308.693 26.6516C308.342 26.6516 308.006 26.6975 307.685 26.7891C307.242 26.896 306.54 27.1709 305.577 27.6138L304.844 24.0629ZM314.629 31.8062C314.629 29.7902 315.01 28.3316 315.774 27.4305C316.553 26.5295 317.759 26.0789 319.394 26.0789C321.043 26.0789 322.242 26.5218 322.99 27.4076C323.739 28.2935 324.113 29.752 324.113 31.7833C324.113 33.7993 323.746 35.2655 323.013 36.1818C322.28 37.0982 321.081 37.5564 319.417 37.5564C317.752 37.5564 316.538 37.0982 315.774 36.1818C315.01 35.2655 314.629 33.8069 314.629 31.8062ZM320.127 29.6298C320.035 29.3244 319.791 29.1716 319.394 29.1716C318.997 29.1716 318.745 29.3244 318.638 29.6298C318.531 29.9353 318.477 30.5767 318.477 31.5542V32.104C318.477 33.1884 318.531 33.8909 318.638 34.2116C318.745 34.5324 318.989 34.6927 319.371 34.6927C319.768 34.6927 320.02 34.5324 320.127 34.2116C320.234 33.8909 320.287 33.2342 320.287 32.2415V31.5771C320.287 30.5844 320.234 29.9353 320.127 29.6298ZM333.345 37.3273H325.121L325.029 35.128L328.42 29.5611H324.892V26.3538H333.116L333.254 28.3927L329.978 34.1658H333.345V37.3273Z" fill="black"/>
<path d="M290.024 195.764C289.47 195.4 288.994 194.873 288.596 194.18C288.215 193.488 288.025 192.588 288.025 191.48C288.025 190.372 288.328 189.386 288.933 188.52C289.557 187.637 290.431 187.057 291.556 186.781V184.34H294.983V186.677C295.848 186.746 296.818 186.876 297.891 187.066L297.372 191.22C295.658 190.822 294.481 190.623 293.841 190.623C293.027 190.623 292.62 190.952 292.62 191.61C292.62 191.869 292.811 192.12 293.191 192.363C293.59 192.605 294.066 192.865 294.619 193.142C295.173 193.401 295.727 193.721 296.281 194.102C296.835 194.466 297.302 194.994 297.683 195.686C298.081 196.378 298.28 197.278 298.28 198.386C298.28 199.477 297.995 200.455 297.423 201.32C296.87 202.168 296.056 202.731 294.983 203.008V205.033H291.556V203.164C290.448 203.042 289.418 202.817 288.466 202.489L288.752 198.62C290.604 199.157 291.893 199.425 292.62 199.425C293.347 199.425 293.711 199.105 293.711 198.464C293.711 198.135 293.512 197.832 293.114 197.555C292.733 197.278 292.265 197.002 291.711 196.725C291.158 196.448 290.595 196.127 290.024 195.764ZM299.318 187.949C300.997 187.049 302.668 186.599 304.329 186.599C306.008 186.599 307.281 187.023 308.146 187.871C309.012 188.719 309.444 189.922 309.444 191.48C309.444 193.02 309.167 194.284 308.613 195.271C308.077 196.257 307.082 197.59 305.628 199.269H309.496V202.982H299.968L299.76 200.334C301.404 198.585 302.573 197.261 303.265 196.361C303.957 195.461 304.425 194.717 304.667 194.128C304.909 193.54 305.03 192.994 305.03 192.493C305.03 191.973 304.901 191.575 304.641 191.298C304.399 191.021 304.078 190.883 303.68 190.883C303.282 190.883 302.901 190.935 302.538 191.039C302.036 191.16 301.24 191.471 300.149 191.973L299.318 187.949ZM311.783 201.216C311.783 200.524 311.965 200.013 312.328 199.684C312.692 199.338 313.272 199.165 314.068 199.165C314.864 199.165 315.444 199.338 315.808 199.684C316.171 200.013 316.353 200.541 316.353 201.268C316.353 202.601 315.591 203.267 314.068 203.267C312.545 203.267 311.783 202.584 311.783 201.216ZM327.8 197.503C327.8 201.329 326.104 203.241 322.711 203.241C321.136 203.241 319.674 202.973 318.323 202.437L318.635 198.412C320.418 198.949 321.621 199.217 322.244 199.217C323.127 199.217 323.568 198.741 323.568 197.789C323.568 196.82 323.231 196.335 322.555 196.335C322.227 196.335 321.976 196.508 321.803 196.854L318.349 196.335V186.858H327.073V190.727H322.374V193.038C322.824 192.795 323.395 192.674 324.087 192.674C326.563 192.674 327.8 194.284 327.8 197.503ZM335.877 195.037V194.647C335.877 192.951 335.825 191.965 335.721 191.688C335.635 191.393 335.54 191.142 335.436 190.935C335.245 190.589 334.908 190.415 334.423 190.415C333.938 190.415 333.61 190.589 333.436 190.935C333.229 191.385 333.116 191.843 333.099 192.311C333.064 193.176 333.047 193.955 333.047 194.647V195.037C333.047 196.924 333.09 198.023 333.177 198.334C333.281 198.629 333.385 198.88 333.488 199.087C333.661 199.468 334.034 199.658 334.605 199.658C335.176 199.658 335.531 199.338 335.669 198.698C335.808 198.04 335.877 196.82 335.877 195.037ZM339.798 191.324C339.953 192.276 340.031 193.47 340.031 194.907C340.031 196.344 339.953 197.538 339.798 198.49C339.659 199.442 339.391 200.299 338.993 201.061C338.214 202.514 336.691 203.241 334.423 203.241C332.19 203.241 330.684 202.514 329.905 201.061C329.507 200.299 329.23 199.442 329.075 198.49C328.919 197.521 328.841 196.326 328.841 194.907C328.841 191.999 329.222 189.887 329.983 188.572C330.762 187.257 332.242 186.599 334.423 186.599C336.708 186.599 338.231 187.317 338.993 188.754C339.391 189.515 339.659 190.372 339.798 191.324Z" fill="black"/>
<ellipse cx="443.291" cy="135.927" rx="57.6545" ry="35.1273" fill="#42F4EB"/>
<path d="M403.337 48.9233H482.988L474.612 147.761C474.344 150.924 471.698 153.354 468.524 153.354H417.8C414.626 153.354 411.981 150.924 411.713 147.761L403.337 48.9233Z" fill="#7A4CD5"/>
<ellipse cx="443.162" cy="49.3658" rx="39.8254" ry="11.9476" fill="#8A59E9"/>
<path d="M433.902 16.228H432.298V19H428.473V16.228H423.272L422.883 13.5018L427.579 4.77346H432.298V13.1353H434.062L433.902 16.228ZM428.587 13.1353V9.63018H428.45L426.571 13.1353H428.587ZM445.178 16.228H443.574V19H439.748V16.228H434.548L434.158 13.5018L438.855 4.77346H443.574V13.1353H445.338L445.178 16.228ZM439.863 13.1353V9.63018H439.725L437.847 13.1353H439.863ZM445.709 13.4789C445.709 11.4629 446.091 10.0044 446.854 9.10327C447.633 8.20218 448.84 7.75164 450.474 7.75164C452.123 7.75164 453.322 8.19455 454.071 9.08037C454.819 9.96618 455.193 11.4247 455.193 13.456C455.193 15.472 454.827 16.9382 454.094 17.8545C453.36 18.7709 452.162 19.2291 450.497 19.2291C448.832 19.2291 447.618 18.7709 446.854 17.8545C446.091 16.9382 445.709 15.4796 445.709 13.4789ZM451.207 11.3025C451.115 10.9971 450.871 10.8444 450.474 10.8444C450.077 10.8444 449.825 10.9971 449.718 11.3025C449.611 11.608 449.558 12.2495 449.558 13.2269V13.7767C449.558 14.8611 449.611 15.5636 449.718 15.8844C449.825 16.2051 450.069 16.3655 450.451 16.3655C450.848 16.3655 451.1 16.2051 451.207 15.8844C451.314 15.5636 451.367 14.9069 451.367 13.9142V13.2498C451.367 12.2571 451.314 11.608 451.207 11.3025ZM464.426 19H456.201L456.11 16.8007L459.5 11.2338H455.972V8.02655H464.197L464.334 10.0655L461.058 15.8385H464.426V19Z" fill="black"/>
<path d="M420.526 195.764C419.972 195.4 419.496 194.873 419.098 194.18C418.718 193.488 418.527 192.588 418.527 191.48C418.527 190.372 418.83 189.386 419.436 188.52C420.059 187.637 420.933 187.057 422.058 186.781V184.34H425.485V186.677C426.351 186.746 427.32 186.876 428.393 187.066L427.874 191.22C426.16 190.822 424.983 190.623 424.343 190.623C423.529 190.623 423.123 190.952 423.123 191.61C423.123 191.869 423.313 192.12 423.694 192.363C424.092 192.605 424.568 192.865 425.122 193.142C425.676 193.401 426.23 193.721 426.784 194.102C427.337 194.466 427.805 194.994 428.186 195.686C428.584 196.378 428.783 197.278 428.783 198.386C428.783 199.477 428.497 200.455 427.926 201.32C427.372 202.168 426.559 202.731 425.485 203.008V205.033H422.058V203.164C420.95 203.042 419.92 202.817 418.968 202.489L419.254 198.62C421.106 199.157 422.396 199.425 423.123 199.425C423.85 199.425 424.213 199.105 424.213 198.464C424.213 198.135 424.014 197.832 423.616 197.555C423.235 197.278 422.768 197.002 422.214 196.725C421.66 196.448 421.098 196.127 420.526 195.764ZM429.821 187.949C431.5 187.049 433.17 186.599 434.832 186.599C436.511 186.599 437.783 187.023 438.649 187.871C439.514 188.719 439.947 189.922 439.947 191.48C439.947 193.02 439.67 194.284 439.116 195.271C438.579 196.257 437.584 197.59 436.13 199.269H439.999V202.982H430.47L430.262 200.334C431.907 198.585 433.075 197.261 433.767 196.361C434.46 195.461 434.927 194.717 435.169 194.128C435.412 193.54 435.533 192.994 435.533 192.493C435.533 191.973 435.403 191.575 435.143 191.298C434.901 191.021 434.581 190.883 434.183 190.883C433.785 190.883 433.404 190.935 433.04 191.039C432.538 191.16 431.742 191.471 430.652 191.973L429.821 187.949ZM442.286 201.216C442.286 200.524 442.467 200.013 442.831 199.684C443.194 199.338 443.774 199.165 444.57 199.165C445.367 199.165 445.947 199.338 446.31 199.684C446.674 200.013 446.855 200.541 446.855 201.268C446.855 202.601 446.094 203.267 444.57 203.267C443.047 203.267 442.286 202.584 442.286 201.216ZM458.51 189.273L454.071 202.982H449.189L453.525 190.987H448.281V186.858H458.51V189.273ZM469.205 197.503C469.205 201.329 467.509 203.241 464.116 203.241C462.541 203.241 461.079 202.973 459.729 202.437L460.04 198.412C461.823 198.949 463.026 199.217 463.649 199.217C464.532 199.217 464.973 198.741 464.973 197.789C464.973 196.82 464.636 196.335 463.961 196.335C463.632 196.335 463.381 196.508 463.208 196.854L459.755 196.335V186.858H468.478V190.727H463.779V193.038C464.229 192.795 464.8 192.674 465.492 192.674C467.968 192.674 469.205 194.284 469.205 197.503Z" fill="black"/>
</svg>
