<svg width="48" height="45" viewBox="0 0 48 45" fill="none" xmlns="http://www.w3.org/2000/svg">
<path d="M37.9528 13.1394C37.9528 13.1394 45.5345 13.8928 46.6718 18.649C47.8091 23.4052 44.0182 24.7709 43.0231 24.7238C41.9806 24.7238 40.7485 23.8291 39.2796 22.793C38.0475 21.8983 35.6308 21.8512 34.3988 23.4994C32.6929 25.8069 31.603 33.2944 37.4789 34.0007C40.8433 34.2362 42.5966 32.7293 45.1555 34.6129C47.0035 35.9315 48.3777 37.9564 45.6293 41.5824C42.8809 45.2084 33.072 47.6572 26.201 39.7929C19.33 31.9287 24.6372 11.0203 37.9528 13.1394Z" fill="#42F4EB"/>
<path d="M19.662 5.22808C19.662 5.22808 18.0508 4.99262 6.01474 7.06463C0.517942 8.19481 -1.47228 13.1865 1.22873 15.3527C3.64543 17.3305 6.77292 15.9178 8.43143 14.8347C10.2795 13.6103 10.6586 13.4219 11.7485 13.3748C12.7436 13.2807 13.7387 13.8928 14.023 16.7654C14.4021 20.1089 14.7338 26.9371 12.2697 29.6213C9.80563 32.2584 6.58337 30.9398 4.97224 30.8456C3.36111 30.7514 2.41339 30.3747 0.802259 32.4938C-0.80887 34.6129 -0.0506918 38.8511 3.59804 40.6877C7.24678 42.5242 16.2501 43.3719 20.278 33.8595C22.6947 26.8429 20.278 16.7183 19.8989 15.1172C19.2355 12.433 19.5198 11.8679 20.7992 11.915C21.9365 11.9621 23.2633 12.1034 24.0215 9.93719C25.2061 6.31117 22.7894 5.32226 19.662 5.22808Z" fill="#42F4EB"/>
<path d="M29.8023 9.84305C29.6602 10.2198 29.4706 11.2087 30.0392 10.832C30.2288 10.6907 32.1716 9.32505 33.5932 9.41923C35.3465 9.56051 36.1994 10.3611 37.858 10.5023C40.4168 10.7378 42.3123 8.43032 42.1227 6.07577C41.9332 3.72121 38.8531 0.848652 33.5932 4.47467C31.603 5.93449 30.1814 8.71287 29.8023 9.84305Z" fill="#42F4EB"/>
<path d="M27.0544 6.87624C27.1966 7.15879 27.3861 7.58261 27.5283 7.20588C27.5757 7.1117 27.623 6.5937 28.2391 6.12279C29.0446 5.5106 29.8028 5.41642 30.8453 4.52169C32.1247 3.4386 32.1247 1.93168 31.3665 0.895676C30.3714 -0.517056 27.1018 -0.564147 26.391 3.01478C26.1067 4.52169 26.4858 5.74606 27.0544 6.87624Z" fill="#42F4EB"/>
</svg>
