<svg width="47" height="47" viewBox="0 0 47 47" fill="none" xmlns="http://www.w3.org/2000/svg">
<g clip-path="url(#clip0)">
<path d="M23.5 47.0001C36.4788 47.0001 47.0001 36.4788 47.0001 23.5C47.0001 10.5213 36.4788 0 23.5 0C10.5213 0 0 10.5213 0 23.5C0 36.4788 10.5213 47.0001 23.5 47.0001Z" fill="#FFCB49"/>
<path d="M8.07159 23.516C8.07159 32.0358 14.9787 38.943 23.4986 38.943C32.0188 38.943 38.9262 32.0358 38.9262 23.516H8.07159Z" fill="#333333"/>
<path d="M14.9204 29.6227C14.9204 34.3602 18.7614 38.2008 23.4985 38.2008C28.2363 38.2008 32.0769 34.3598 32.0769 29.6227H14.9204Z" fill="#CA2027"/>
<path d="M16.3569 19.0851C18.3952 19.0851 20.0476 17.4327 20.0476 15.3944C20.0476 13.356 18.3952 11.7036 16.3569 11.7036C14.3185 11.7036 12.6661 13.356 12.6661 15.3944C12.6661 17.4327 14.3185 19.0851 16.3569 19.0851Z" fill="#333333"/>
<path d="M30.3128 19.0851C32.3511 19.0851 34.0035 17.4327 34.0035 15.3944C34.0035 13.356 32.3511 11.7036 30.3128 11.7036C28.2745 11.7036 26.6221 13.356 26.6221 15.3944C26.6221 17.4327 28.2745 19.0851 30.3128 19.0851Z" fill="#333333"/>
</g>
<defs>
<clipPath id="clip0">
<rect width="47" height="47" fill="white"/>
</clipPath>
</defs>
</svg>
